<svg width="270" height="80" viewBox="0 0 270 80" fill="none" xmlns="http://www.w3.org/2000/svg">
<path fill-rule="evenodd" clip-rule="evenodd" d="M129.213 14.8604L125.969 11.6648L131.542 24.7161L144.222 65.8136L145.663 80L152.028 65.656L155.548 55.5149L172.406 10.9286L176.94 0L167.067 11.8188L158.184 31.2779L147.284 52.743L132.611 19.4803L129.213 14.8604ZM132.498 59.2349H132.012C130.96 59.2349 129.948 58.9142 128.977 58.2726C128.006 57.6311 127.237 56.6889 126.67 55.446L110.401 16.8951H109.854C109.854 17.7771 109.106 19.842 107.608 23.0897L93.8885 55.446C93.2815 56.6889 92.4923 57.6311 91.521 58.2726C90.5497 58.9142 89.5581 59.2349 88.5464 59.2349H88V59.8363H100.202V59.2349H99.6556C98.8058 59.2349 98.1582 58.9743 97.713 58.4531C97.3083 57.8917 97.106 57.3906 97.106 56.9495C97.106 56.4684 97.1869 55.9873 97.3488 55.5061L101.416 45.2219H117.807L121.692 55.446C121.854 55.9271 121.935 56.4082 121.935 56.8894C121.935 57.3705 121.712 57.8917 121.267 58.4531C120.862 58.9743 120.235 59.2349 119.385 59.2349H118.839V59.8363H132.498V59.2349ZM117.078 43.4176H102.145L109.794 24.1121L117.078 43.4176ZM181.483 59.2349C182.576 59.2349 183.527 58.9142 184.336 58.2726C185.145 57.6311 185.55 56.8693 185.55 55.9873V27.6003C185.55 26.7182 185.145 25.9564 184.336 25.3149C183.527 24.6734 182.555 24.3526 181.422 24.3526H180.633V23.7512H194.353V24.3526H193.563C192.471 24.3526 191.52 24.6534 190.71 25.2548C189.941 25.8562 189.516 26.5979 189.435 27.48V56.0474C189.476 56.9295 189.901 57.6913 190.71 58.3328C191.52 58.9342 192.471 59.2349 193.563 59.2349H194.353L194.413 59.8363H180.633V59.2349H181.483ZM238.3 24.3526H237.815C236.924 24.3526 236.054 24.6534 235.204 25.2548C234.354 25.8161 233.626 26.6781 233.019 27.8409C224.196 46.6051 219.603 56.4283 219.238 57.3104C218.55 58.9943 218.186 60.117 218.146 60.6783H217.599L202.605 27.901C201.431 25.5354 199.873 24.3526 197.93 24.3526H197.445V23.7512H209.89V24.3526H209.404C208.635 24.3526 208.048 24.6333 207.643 25.1946C207.279 25.7159 207.097 26.197 207.097 26.638C207.097 27.0791 207.158 27.5402 207.279 28.0213L218.146 54.2431L229.316 28.1416C229.518 27.6204 229.619 27.1392 229.619 26.6982C229.619 26.217 229.417 25.7159 229.012 25.1946C228.607 24.6333 228 24.3526 227.191 24.3526H226.766V23.7512H238.3V24.3526ZM242.13 59.2349C243.101 59.2349 243.911 58.9342 244.558 58.3328C245.246 57.6913 245.611 56.9295 245.651 56.0474V27.48C245.651 26.5979 245.307 25.8562 244.619 25.2548C243.931 24.6534 243.101 24.3526 242.13 24.3526H241.28V23.7512H259.006C260.666 23.7512 262.123 23.6309 263.377 23.3904C264.632 23.1498 265.441 22.9493 265.806 22.789V29.6451L265.138 29.585V28.6829C265.138 27.8409 264.854 27.1192 264.288 26.5178C263.721 25.9163 262.993 25.6156 262.102 25.6156H249.475V40.8917H259.856C260.666 40.8917 261.273 40.6511 261.677 40.17C262.123 39.6888 262.345 39.0874 262.345 38.3657V37.5839H263.013V46.0037H262.345V45.2219C262.345 44.0992 261.92 43.3374 261.07 42.9365C260.747 42.8162 260.403 42.736 260.038 42.6959H249.475V57.9719H259.006C260.868 57.9719 262.426 57.6512 263.681 57.0097C264.976 56.3682 265.947 55.6064 266.595 54.7243C267.283 53.8422 267.971 52.6795 268.659 51.236H269.266L265.927 59.8363H241.28V59.2349H242.13ZM73 39.5C73 59.6584 56.6584 76 36.5 76C16.3416 76 0 59.6584 0 39.5C0 19.3416 16.3416 3 36.5 3C56.6584 3 73 19.3416 73 39.5ZM18.0126 29.2849L19.1263 30.3924L20.293 31.9935L25.3311 43.5215L29.0734 36.0823L32.1235 29.3383L35.5134 25.2422L33.9567 29.0298L28.1684 44.4822L26.9598 47.9968L24.7743 52.9681L24.2795 48.0514L19.926 33.8081L18.0126 29.2849ZM20.0874 45.7714H20.2542V45.9799H15.5644V45.7714H15.752C16.0438 45.7714 16.2591 45.6811 16.3981 45.5005C16.551 45.3059 16.6274 45.1253 16.6274 44.9585C16.6274 44.7918 16.5996 44.625 16.544 44.4583L15.21 40.9149H9.58226L8.18574 44.4791C8.13016 44.6459 8.10237 44.8126 8.10237 44.9794C8.10237 45.1322 8.17184 45.3059 8.3108 45.5005C8.46365 45.6811 8.68599 45.7714 8.9778 45.7714H9.16539V45.9799H4.97583V45.7714H5.16342C5.51082 45.7714 5.85126 45.6603 6.18476 45.4379C6.51825 45.2156 6.78922 44.8891 6.99766 44.4583L11.7083 33.2445C12.2224 32.1189 12.4795 31.4033 12.4795 31.0976H12.6671L18.2532 44.4583C18.4477 44.8891 18.7117 45.2156 19.0452 45.4379C19.3787 45.6603 19.7261 45.7714 20.0874 45.7714ZM9.83238 40.2896H14.9599L12.4587 33.5988L9.83238 40.2896ZM38.0528 45.4379C37.7749 45.6603 37.4483 45.7714 37.0731 45.7714H36.7813V45.9799H41.5128L41.492 45.7714H41.221C40.8458 45.7714 40.5193 45.6672 40.2414 45.4588C39.9634 45.2365 39.8175 44.9724 39.8036 44.6667V34.766C39.8314 34.4603 39.9773 34.2033 40.2414 33.9948C40.5193 33.7864 40.8458 33.6822 41.221 33.6822H41.492V33.4737H36.7813V33.6822H37.0523C37.4414 33.6822 37.7749 33.7933 38.0528 34.0157C38.3307 34.238 38.4697 34.502 38.4697 34.8077V44.6459C38.4697 44.9516 38.3307 45.2156 38.0528 45.4379ZM56.4147 33.6822H56.5814V33.4737H52.6211V33.6822H52.767C53.045 33.6822 53.2534 33.7794 53.3923 33.974C53.5313 34.1546 53.6008 34.3283 53.6008 34.4951C53.6008 34.6479 53.566 34.8147 53.4966 34.9953L49.6613 44.0414L45.9303 34.9536C45.8887 34.7869 45.8678 34.6271 45.8678 34.4742C45.8678 34.3214 45.9303 34.1546 46.0554 33.974C46.1944 33.7794 46.3959 33.6822 46.6599 33.6822H46.8266V33.4737H42.5537V33.6822H42.7204C43.3874 33.6822 43.9224 34.0921 44.3254 34.9119L49.4738 46.2717H49.6613C49.6752 46.0771 49.8003 45.6881 50.0365 45.1044C50.1616 44.7987 51.7388 41.3943 54.768 34.8911C54.9765 34.4881 55.2266 34.1894 55.5184 33.9948C55.8102 33.7864 56.109 33.6822 56.4147 33.6822ZM58.7301 45.4588C58.5078 45.6672 58.2298 45.7714 57.8963 45.7714H57.6045V45.9799H66.067L67.2134 42.9992H67.005C66.7688 43.4995 66.5325 43.9025 66.2963 44.2082C66.074 44.5139 65.7405 44.7779 65.2958 45.0002C64.8651 45.2226 64.3301 45.3337 63.6909 45.3337H60.4184V40.0395H64.0452C64.1703 40.0534 64.2884 40.0811 64.3995 40.1228C64.6914 40.2618 64.8372 40.5258 64.8372 40.9149V41.1859H65.0665V38.2678H64.8372V38.5387C64.8372 38.7888 64.7608 38.9973 64.608 39.164C64.469 39.3308 64.2606 39.4142 63.9827 39.4142H60.4184V34.1199H64.7539C65.0596 34.1199 65.3097 34.2241 65.5042 34.4325C65.6988 34.641 65.7961 34.8911 65.7961 35.1829V35.4956L66.0253 35.5164V33.1402C65.9003 33.1958 65.6224 33.2653 65.1916 33.3487C64.7608 33.432 64.2606 33.4737 63.6909 33.4737H57.6045V33.6822H57.8963C58.2298 33.6822 58.5147 33.7864 58.7509 33.9948C58.9872 34.2033 59.1053 34.4603 59.1053 34.766V44.6667C59.0914 44.9724 58.9663 45.2365 58.7301 45.4588Z" fill="black"/>
</svg>
